<svg width="32" height="16" viewBox="0 0 32 16" fill="none" xmlns="http://www.w3.org/2000/svg">
<path d="M10.6971 6.0888C10.7178 4.72225 10.8576 3.3557 10.9714 1.99431C11.0025 1.62166 10.9196 0.757213 11.3648 0.544934C11.9342 0.27572 12.3277 1.29036 12.5398 1.62166C13.2127 2.67764 13.8391 3.76467 14.4085 4.88275C14.7657 4.11143 15.3195 3.40748 15.8112 2.72427C16.0338 2.41371 16.3236 1.84952 16.7947 1.95296C17.1932 2.03578 17.3381 2.5223 17.4521 2.8536C17.6902 3.52135 17.9698 4.23045 18.0681 4.93968C18.7669 3.88885 19.4967 2.85875 20.237 1.83909C20.5321 1.43012 20.8168 0.715864 21.3913 0.674388C21.4585 0.669235 21.5259 0.715736 21.5621 0.77267C21.9865 1.41453 21.8313 2.43432 21.8054 3.15901C21.7692 4.30812 21.6864 5.45724 21.5621 6.59605C22.1004 6.18193 22.6698 5.81443 23.2961 5.53491C23.5912 5.40546 24.1709 5.08459 24.4919 5.33822C24.8749 5.63332 24.5798 6.35273 24.4608 6.68931C24.2123 7.39326 23.8241 8.03512 23.6326 8.75465C24.4814 8.35612 25.3666 8.03512 26.2777 7.80738C26.7952 7.67793 27.6701 7.33117 28.2084 7.55891C29.3162 8.02481 27.3232 10.1833 26.9557 10.6595C26.9144 10.7113 26.8678 10.732 26.816 10.732C27.2042 11.436 27.7736 12.0209 28.5552 12.3056C29.8079 12.761 30.5895 11.9329 31.5471 11.2858C31.6558 11.2133 31.7593 11.2496 31.8214 11.3273C31.9353 11.3583 32.044 11.4929 31.9819 11.6378C31.4332 12.9059 30.4549 13.9983 28.9952 14.1173C27.9238 14.2001 26.9765 13.6824 26.5365 12.7507C25.8843 14.3658 23.4566 14.6194 22.2401 13.4806C20.8995 15.9497 16.7325 15.1784 15.5575 12.8956C15.252 13.5013 14.4342 13.8791 13.7975 13.9154C13.0521 13.9516 12.3896 13.6256 11.9755 13.051C11.0126 14.9663 9.44425 15.8048 7.25474 15.691C5.54659 15.6081 4.00923 14.8109 3.39842 13.1856C2.43041 13.9413 0.732561 13.6567 0.0234606 12.6835C-0.0645167 12.5645 0.11659 12.4661 0.209849 12.5386C0.209849 12.5437 0.215001 12.5437 0.215001 12.5437C0.215001 12.5437 0.215001 12.5437 0.220154 12.5437C1.0846 12.7715 1.88181 12.3678 2.4201 11.6949C2.79275 11.2238 2.97914 10.644 3.32074 10.1678C3.3259 10.0799 3.39326 10.0281 3.46566 10.0178C3.48124 10.0126 3.49155 10.0126 3.50713 10.0126C3.57437 10.0178 3.63131 10.0541 3.66248 10.1316C3.81254 10.5458 4.00408 10.903 4.21636 11.229C4.48029 11.053 4.95135 11.0323 5.25161 10.9702C5.645 10.8925 6.04353 10.8097 6.43692 10.7476C5.67604 10.0695 4.99785 9.28793 4.37673 8.48042C4.14899 8.18016 3.31559 7.41928 3.53302 6.95865C3.76591 6.47201 4.75466 6.86552 5.08596 6.93791C6.12636 7.16565 7.1513 7.46591 8.15035 7.8334C7.8501 7.1243 7.61206 6.39433 7.45156 5.6386C7.37389 5.28657 7.11511 4.58777 7.45671 4.28764C7.85525 3.94089 8.41944 4.4636 8.7197 4.67588C9.37714 5.13624 10.0862 5.57111 10.6971 6.0888ZM30.9727 12.4349C30.2014 12.9783 29.2748 13.2217 28.3276 12.8439C27.4475 12.4918 26.7281 11.7776 26.4071 10.9027C26.0499 11.8707 25.2891 12.8439 24.2797 12.968C23.317 13.0819 22.4214 12.5126 22.0228 11.674C21.1118 14.1276 16.9967 14.0189 15.9717 11.5446C15.7906 11.85 15.5368 12.1087 15.2419 12.3054C14.7346 12.647 14.1031 12.8024 13.4922 12.6575C12.8658 12.5074 12.1723 11.9484 11.929 11.2909C10.2467 14.759 4.93061 14.3502 3.50713 10.7526C3.09816 11.8707 2.02672 12.9629 0.856863 12.9423C1.63333 13.3046 2.4098 13.2269 3.2897 12.8128C3.34148 12.7869 3.38811 12.7869 3.43461 12.8025C3.49155 12.7922 3.55363 12.8025 3.58468 12.8646C4.34041 14.4537 5.81567 15.1422 7.51352 15.1836C9.53223 15.2405 10.7333 14.3502 11.6857 12.6523C11.7116 12.611 11.7375 12.5851 11.7685 12.5695C11.7944 12.528 11.8462 12.5074 11.8875 12.5436C11.9911 12.5539 12.0791 12.6419 12.0894 12.7506C12.5138 13.1802 13.0833 13.4909 13.6992 13.4701C14.4964 13.4391 14.8484 12.9267 15.3815 12.4556C15.3867 12.4453 15.3971 12.4402 15.4022 12.4349C15.5058 12.3418 15.6403 12.409 15.661 12.5229C16.9809 14.6089 20.4128 15.3698 21.9399 13.1596C21.9502 13.144 21.9606 13.1388 21.9709 13.1285C21.9865 13.0768 22.0382 13.0457 22.0848 13.0613C22.1883 13.0457 22.2918 13.1131 22.3228 13.2114C23.0009 13.6462 23.7515 13.9102 24.5746 13.7032C25.4493 13.4857 25.848 12.8749 26.3448 12.1968C26.4484 12.0571 26.6346 12.1192 26.6554 12.2745C27.7634 14.2828 29.7718 13.8066 30.9727 12.4349ZM27.8462 8.61476C28.3742 7.71412 27.5408 7.95732 26.9041 8.09708C25.7342 8.35586 24.6059 8.73379 23.4877 9.16852C24.0518 10.1106 24.466 11.1666 24.6678 12.3054C25.4546 11.8965 25.8274 10.8612 26.1328 10.1055C26.2415 9.82082 26.64 9.92953 26.5882 10.2297C26.5882 10.24 26.5882 10.2452 26.5831 10.2504C26.6038 10.2919 26.6246 10.3332 26.64 10.3747C26.6452 10.3695 26.6452 10.3591 26.6503 10.354C27.0853 9.8002 27.489 9.22558 27.8462 8.61476ZM24.2384 6.05762C24.2591 5.67969 24.1348 5.56583 23.876 5.72632C23.555 5.72632 23.1203 6.01615 22.8459 6.15591C22.4059 6.38364 21.9815 6.6477 21.5466 6.8909C22.23 7.46552 22.8252 8.14358 23.317 8.90446C23.3324 8.89415 23.348 8.88887 23.3636 8.87857C23.1721 8.53181 23.3015 8.32468 23.462 7.96234C23.7002 7.4395 23.9797 6.92709 24.1505 6.37321C24.1814 6.2699 24.2125 6.16634 24.2384 6.05762ZM22.1626 11.115C22.5093 11.9173 23.291 12.6057 24.202 12.4556C22.0901 2.84832 7.86555 3.25729 6.47312 12.9733C8.45048 13.5685 10.7902 12.5437 11.8616 10.1833C11.9703 9.94524 12.3327 10.1212 12.2758 10.3592C12.255 10.4421 12.2188 10.5093 12.1981 10.587C12.3171 11.4411 12.9694 12.1968 13.8908 12.2227C14.8588 12.2435 15.4851 11.4981 15.8526 10.6957C15.9664 10.4577 16.308 10.6388 16.2563 10.8665C16.2408 10.9442 16.2096 11.0114 16.189 11.0788C17.2553 13.7549 20.7441 13.3667 21.7742 10.8148C21.857 10.6026 22.2194 10.6078 22.2039 10.8718C22.1936 10.9596 22.173 11.0321 22.1626 11.115ZM21.3499 4.0545C21.381 3.55755 21.6605 2.27382 21.4172 1.83896C20.9927 1.06249 20.6925 1.87516 20.4337 2.22204C20.2111 2.52745 19.9782 2.82771 19.7556 3.13827C19.2587 3.80602 18.7722 4.48408 18.2649 5.14668C19.3261 5.44693 20.3044 5.94389 21.1688 6.5909C21.2258 5.74706 21.2981 4.8982 21.3499 4.0545ZM17.7265 5.00692C17.5867 4.66016 17.4936 4.29769 17.3797 3.94578C17.3021 3.69731 17.2244 3.45398 17.1416 3.20551C17.0743 3.00366 17.0018 2.80697 16.9241 2.61028C16.7223 2.64647 16.5204 2.6828 16.3185 2.71899C16.1787 2.79666 15.9405 3.22109 15.8474 3.35055C15.6869 3.56283 15.5368 3.77498 15.3815 3.98726C15.1589 4.29782 14.9415 4.60838 14.6983 4.89833C14.8122 4.88275 14.9209 4.86214 15.0347 4.8517C15.9614 4.75844 16.8672 4.82053 17.7265 5.00692ZM14.0254 4.99649C13.6734 4.33389 13.3214 3.67657 12.9384 3.02943C12.7365 2.68267 12.5242 2.33578 12.3068 1.99418C12.0945 1.65772 11.7995 0.974387 11.3906 1.58521C11.2716 1.75601 11.2974 2.59971 11.2767 2.81199C11.2352 3.22097 11.199 3.62981 11.1524 4.03878C11.0852 4.69623 11.0178 5.35355 10.9142 6.00584C11.8877 5.53491 12.9436 5.19318 14.0254 4.99649ZM8.39883 7.73486C8.97345 7.17067 9.63077 6.68918 10.3555 6.28549C9.56353 5.71087 7.90188 4.44788 7.69475 4.71194C7.54469 4.90348 7.95353 6.16132 8.01047 6.37875C8.12446 6.83409 8.25907 7.28441 8.39883 7.73486ZM6.59227 10.5352C6.89768 9.66045 7.36358 8.87883 7.95366 8.20064C7.28076 7.96775 6.60785 7.74517 5.91936 7.56393C5.645 7.49141 4.20606 6.95311 3.97304 7.22748C3.79708 7.43461 6.0228 9.88818 6.59227 10.5352ZM6.18329 12.8646C6.18845 12.2589 6.26097 11.6896 6.39029 11.1513C5.8261 11.2497 4.73392 11.436 4.34569 11.4152C4.85294 12.114 5.48965 12.5954 6.18329 12.8646Z" fill="#1D1D1B"/>
<path d="M28.3276 12.8438C29.2749 13.2218 30.2014 12.9785 30.9727 12.4349C29.7718 13.8066 27.7634 14.2828 26.6556 12.2744C26.6349 12.119 26.4486 12.0569 26.3451 12.1967C25.8481 12.8748 25.4496 13.4856 24.5748 13.703C23.7519 13.91 23.0013 13.6461 22.3231 13.2112C22.292 13.1128 22.1885 13.0456 22.085 13.0612C22.0384 13.0456 21.9866 13.0766 21.9712 13.1284C21.9609 13.1387 21.9504 13.1438 21.9401 13.1594C20.4131 15.3697 16.9812 14.6088 15.6613 12.5227C15.6405 12.4089 15.5059 12.3416 15.4025 12.4347C15.3973 12.4399 15.3869 12.4451 15.3818 12.4555L15.242 12.3054C15.5371 12.1087 15.7907 11.85 15.9718 11.5445C16.9968 14.0189 21.1119 14.1276 22.023 11.674C22.4215 12.5125 23.317 13.0819 24.2798 12.968C25.2892 12.8438 26.0502 11.8707 26.4073 10.9027C26.7281 11.7776 27.4477 12.4918 28.3276 12.8438ZM19.7712 14.2414C19.9007 14.2052 19.8799 13.9981 19.7402 14.0034C19.3727 14.0189 19.0776 13.9931 18.7308 13.8739C18.6118 13.8378 18.5497 14.0034 18.648 14.0706C18.9637 14.2725 19.4089 14.3502 19.7712 14.2414Z" fill="#99D9F1"/>
<path d="M26.9041 8.09716C27.5408 7.9574 28.3742 7.71408 27.8462 8.61485C27.489 9.22567 27.0853 9.80016 26.6505 10.354C26.6453 10.3592 26.6453 10.3695 26.6402 10.3748C26.6246 10.3333 26.604 10.292 26.5832 10.2505C26.5884 10.2453 26.5884 10.2402 26.5884 10.2297C26.6402 9.92949 26.2416 9.82077 26.1329 10.1056C25.8275 10.8613 25.4549 11.8965 24.668 12.3055C24.4661 11.1667 24.052 10.1107 23.4878 9.1686C24.6059 8.73374 25.7342 8.35594 26.9041 8.09716ZM25.4237 10.5559C25.5014 10.3902 25.2839 10.2608 25.1752 10.411C25.0199 10.618 24.8957 10.8303 24.7715 11.0528C24.6731 11.2288 24.9372 11.3841 25.0459 11.2133C25.1805 10.9959 25.315 10.7836 25.4237 10.5559Z" fill="#F0954F"/>
<path d="M25.1752 10.411C25.2839 10.261 25.5014 10.3903 25.4237 10.556C25.315 10.7837 25.1804 10.996 25.0459 11.2134C24.9372 11.3842 24.6732 11.229 24.7715 11.0529C24.8957 10.8303 25.02 10.618 25.1752 10.411Z" fill="#1D1D1B"/>
<path d="M23.876 5.72644C24.1348 5.56594 24.2591 5.67981 24.2384 6.05774C24.2125 6.16645 24.1814 6.27002 24.1504 6.37345C23.9796 6.92733 23.7001 7.43974 23.4619 7.96258C23.3014 8.32492 23.1721 8.53192 23.3635 8.87881C23.348 8.88911 23.3325 8.89439 23.3169 8.9047C22.8251 8.14382 22.2298 7.46563 21.5465 6.89114C21.9814 6.64782 22.4058 6.38388 22.8458 6.15615C23.1203 6.01626 23.555 5.72644 23.876 5.72644ZM23.4619 6.79273C23.5396 6.68401 23.3739 6.56499 23.2808 6.65297C23.1049 6.81862 23.0375 7.01531 23.0375 7.25335C23.0323 7.41385 23.2704 7.4087 23.2808 7.25335C23.2963 7.0774 23.3635 6.93249 23.4619 6.79273Z" fill="#F0954F"/>
<path d="M24.202 12.4556C23.291 12.6057 22.5093 11.9173 22.1626 11.115C22.1729 11.0322 22.1936 10.9596 22.2041 10.8717C22.2195 10.6077 21.8572 10.6024 21.7743 10.8147C20.7442 13.3667 17.2554 13.7548 16.1891 11.0787C16.2099 11.0114 16.2409 10.9441 16.2564 10.8664C16.3082 10.6386 15.9665 10.4574 15.8527 10.6956C15.4852 11.4979 14.8588 12.2434 13.8909 12.2226C12.9695 12.1967 12.3174 11.441 12.1982 10.5869C12.2189 10.5092 12.2551 10.4419 12.2759 10.3591C12.3328 10.1211 11.9705 9.945 11.8618 10.1832C10.7902 12.5436 8.4506 13.5684 6.47324 12.9732C7.86555 3.2573 22.0902 2.84833 24.202 12.4556ZM23.7155 11.9743C23.7414 11.5601 23.6586 11.1823 23.4722 10.8096C23.4153 10.6957 23.2134 10.7785 23.2599 10.8975C23.4048 11.2392 23.4825 11.6015 23.5084 11.9743C23.5137 12.1088 23.7052 12.1088 23.7155 11.9743ZM21.2619 8.76497C21.3707 8.8581 21.5466 8.73908 21.4689 8.60447C21.2205 8.20593 20.7753 7.9988 20.3198 7.94702C20.1749 7.93157 20.149 8.16445 20.2836 8.20065C20.677 8.29391 20.9668 8.50091 21.2619 8.76497ZM21.0032 9.37566C21.0498 9.47922 21.2206 9.4067 21.1843 9.29798C21.0704 8.92533 20.7391 8.5836 20.325 8.56815C20.2629 8.56299 20.2318 8.66128 20.2939 8.69245C20.6098 8.8581 20.853 9.03405 21.0032 9.37566ZM18.653 12.5592C18.7617 12.5282 18.741 12.3574 18.6271 12.3625C18.1094 12.3987 17.6126 12.1607 17.3486 11.6999C17.3175 11.643 17.2243 11.6792 17.2398 11.7465C17.4211 12.3469 18.0475 12.7196 18.653 12.5592ZM17.9129 9.81052C17.9491 9.99163 18.2234 9.91408 18.1872 9.738C18.1252 9.42228 17.9854 9.15307 17.7213 8.96153C17.6334 8.89944 17.5039 9.02877 17.5713 9.11688C17.7265 9.33431 17.8611 9.54659 17.9129 9.81052ZM15.2419 6.51839C15.3765 6.55986 15.4231 6.35789 15.2988 6.31139C14.8692 6.14574 14.4395 6.23372 14.0876 6.51839C13.9892 6.59606 14.1186 6.76171 14.217 6.68919C14.5172 6.47176 14.8847 6.40967 15.2419 6.51839ZM14.807 8.25243C14.8432 8.17476 14.7449 8.08163 14.6828 8.15402C14.5275 8.34041 14.3982 8.54225 14.2687 8.74925C14.1962 8.86312 14.3774 8.97184 14.4551 8.85797C14.5844 8.65625 14.7036 8.46471 14.807 8.25243ZM14.6518 6.11985C14.7864 6.07322 14.7346 5.87653 14.5897 5.90242C14.1704 5.98009 13.7719 6.10941 13.3629 6.23372C13.2231 6.28035 13.2801 6.48734 13.425 6.45115C13.8391 6.35789 14.248 6.26476 14.6518 6.11985ZM10.1691 10.9804C10.2311 10.8975 10.0914 10.7888 10.0241 10.8717C9.81187 11.115 9.58413 11.3376 9.33566 11.5446C9.25798 11.6015 9.35639 11.7205 9.43407 11.674C9.72904 11.4981 9.97237 11.265 10.1691 10.9804ZM10.0449 11.7879C10.0552 11.7413 9.9931 11.7258 9.97765 11.7671C9.90513 12.0053 9.69813 12.1554 9.4445 12.1346C9.40302 12.1346 9.40302 12.1967 9.4445 12.2019C9.73432 12.2434 9.98795 12.0726 10.0449 11.7879Z" fill="#F7CAA7"/>
<path d="M23.4722 10.8096C23.6586 11.1822 23.7414 11.5601 23.7156 11.9743C23.7052 12.1089 23.5137 12.1089 23.5086 11.9743C23.4827 11.6016 23.405 11.2393 23.2601 10.8975C23.2134 10.7785 23.4153 10.6957 23.4722 10.8096Z" fill="#1D1D1B"/>
<path d="M23.2806 6.65299C23.3738 6.56501 23.5394 6.68403 23.4617 6.79275C23.3633 6.93251 23.2961 7.07742 23.2806 7.25337C23.2703 7.40872 23.0322 7.41387 23.0373 7.25337C23.0374 7.01533 23.1047 6.81864 23.2806 6.65299Z" fill="#1D1D1B"/>
<path d="M21.469 8.60448C21.5466 8.73908 21.3706 8.8581 21.262 8.76497C20.9669 8.50104 20.677 8.29391 20.2837 8.20078C20.149 8.16459 20.1749 7.93157 20.3199 7.94716C20.7755 7.99881 21.2206 8.20581 21.469 8.60448Z" fill="#1D1D1B"/>
<path d="M21.4173 1.83896C21.6606 2.27382 21.3811 3.55754 21.3501 4.05449C21.2983 4.8982 21.2259 5.74719 21.169 6.5909C20.3045 5.94388 19.3262 5.44693 18.2651 5.14667C18.7723 4.48408 19.259 3.80602 19.7558 3.13827C19.9784 2.82771 20.2113 2.52745 20.4339 2.22204C20.6926 1.87515 20.9928 1.06249 21.4173 1.83896ZM20.5321 3.80602C20.5994 3.71289 20.4493 3.59374 20.3716 3.68172C20.2163 3.86295 20.1077 4.0751 19.9834 4.2718C19.9524 4.32358 20.0249 4.38051 20.0611 4.33388C20.2216 4.16308 20.4027 4.00271 20.5321 3.80602ZM19.7401 4.15278C19.8126 4.08026 19.7193 3.95608 19.6262 4.00786C19.388 4.14247 19.2483 4.37536 19.1707 4.63414C19.1293 4.75316 19.3208 4.80494 19.3623 4.68592C19.44 4.46334 19.5797 4.31843 19.7401 4.15278Z" fill="#F0954F"/>
<path d="M21.1843 9.29811C21.2205 9.40682 21.0497 9.47934 21.0032 9.37578C20.8531 9.03418 20.6098 8.8581 20.294 8.69258C20.2319 8.66154 20.2629 8.56313 20.325 8.56828C20.7391 8.58374 21.0704 8.92534 21.1843 9.29811Z" fill="#1D1D1B"/>
<path d="M20.3716 3.68175C20.4493 3.59378 20.5993 3.7128 20.5321 3.80605C20.4026 4.00275 20.2215 4.16324 20.061 4.33405C20.0248 4.38068 19.9523 4.32374 19.9834 4.27196C20.1077 4.07514 20.2164 3.86299 20.3716 3.68175Z" fill="#1D1D1B"/>
<path d="M19.7401 14.0033C19.8799 13.9981 19.9006 14.2051 19.7711 14.2413C19.4088 14.35 18.9636 14.2724 18.6479 14.0705C18.5496 14.0033 18.6117 13.8376 18.7307 13.8738C19.0776 13.993 19.3726 14.0189 19.7401 14.0033Z" fill="#1D1D1B"/>
<path d="M19.6262 4.00785C19.7193 3.95607 19.8126 4.08037 19.74 4.15276C19.5795 4.31841 19.4398 4.46332 19.3621 4.68591C19.3206 4.80493 19.1292 4.75314 19.1706 4.63412C19.2484 4.37534 19.3881 4.14246 19.6262 4.00785Z" fill="#F0954F"/>
<path d="M18.6273 12.3625C18.7412 12.3574 18.7619 12.5282 18.6532 12.5592C18.0475 12.7197 17.4213 12.3469 17.24 11.7465C17.2244 11.6793 17.3177 11.643 17.3487 11.6999C17.6127 12.1605 18.1096 12.3987 18.6273 12.3625Z" fill="#1D1D1B"/>
<path d="M18.1872 9.73799C18.2234 9.91395 17.949 9.99162 17.9128 9.81052C17.861 9.54658 17.7264 9.3343 17.5712 9.11687C17.504 9.02889 17.6333 8.89943 17.7213 8.96152C17.9852 9.15306 18.125 9.42228 18.1872 9.73799Z" fill="#1D1D1B"/>
<path d="M17.3797 3.94577C17.4936 4.29781 17.5867 4.66015 17.7265 5.00691C16.8672 4.82052 15.9614 4.75843 15.0347 4.85156C14.9209 4.86187 14.8121 4.88261 14.6983 4.89819C14.9416 4.60837 15.159 4.29768 15.3815 3.98712C15.5368 3.77484 15.6869 3.56269 15.8474 3.35041C15.9405 3.22096 16.1787 2.79653 16.3184 2.71885C16.5203 2.68266 16.7221 2.64633 16.9241 2.61014C17.0018 2.80683 17.0742 3.00352 17.1415 3.20537C17.2244 3.45397 17.302 3.6973 17.3797 3.94577ZM16.5412 4.62383C16.5567 4.72224 16.7327 4.7015 16.7171 4.59794C16.6705 4.23044 16.5307 3.92503 16.2927 3.64551C16.2565 3.60417 16.1943 3.65582 16.2202 3.70245C16.391 3.98712 16.4894 4.29768 16.5412 4.62383Z" fill="#F0954F"/>
<path d="M16.7171 4.59794C16.7327 4.7015 16.5566 4.72211 16.5412 4.62383C16.4894 4.29768 16.3911 3.98712 16.2202 3.70245C16.1943 3.65582 16.2564 3.60403 16.2927 3.64551C16.5307 3.92503 16.6705 4.23044 16.7171 4.59794Z" fill="#1D1D1B"/>
<path d="M15.2419 12.3056L15.3817 12.4556C14.8485 12.9267 14.4965 13.4391 13.6994 13.4701C13.0834 13.4909 12.514 13.1803 12.0895 12.7506C12.0792 12.6419 11.9911 12.5539 11.8877 12.5436C11.8462 12.5074 11.7946 12.528 11.7687 12.5695C11.7376 12.5851 11.7117 12.611 11.6858 12.6523C10.7334 14.3502 9.53252 15.2405 7.51368 15.1836C5.81583 15.1421 4.34057 14.4537 3.58484 12.8646C3.5538 12.8025 3.49171 12.7921 3.43478 12.8025C3.38815 12.7869 3.34165 12.7869 3.28986 12.8128C2.40983 13.2269 1.63349 13.3046 0.857025 12.9423C2.02688 12.963 3.09832 11.8708 3.5073 10.7526C4.93078 14.3502 10.2469 14.7591 11.9292 11.2909C12.1725 11.9484 12.8661 12.5074 13.4924 12.6575C14.1031 12.8024 14.7347 12.6472 15.2419 12.3056ZM6.4318 14.2363C6.50948 14.2778 6.57156 14.1691 6.49904 14.1224C6.26615 13.9619 6.02798 13.817 5.78466 13.6721C5.70699 13.6255 5.63975 13.7446 5.71214 13.7963C5.95044 13.9463 6.18848 14.0965 6.4318 14.2363ZM5.45864 14.1794C5.55177 14.2311 5.62944 14.0965 5.54147 14.0396C5.24636 13.8481 4.97728 13.6358 4.71322 13.408C4.6407 13.3408 4.53726 13.4442 4.6045 13.5168C4.84782 13.7911 5.13249 14.0137 5.45864 14.1794Z" fill="#99D9F1"/>
<path d="M15.2988 6.31128C15.4229 6.3579 15.3764 6.55975 15.2418 6.51827C14.8847 6.40956 14.5172 6.47164 14.2169 6.68908C14.1185 6.7616 13.9892 6.59595 14.0874 6.51827C14.4395 6.23373 14.8692 6.14575 15.2988 6.31128Z" fill="#1D1D1B"/>
<path d="M14.6828 8.15414C14.7449 8.08162 14.8433 8.17488 14.807 8.25255C14.7034 8.46483 14.5844 8.65624 14.455 8.85821C14.3773 8.97208 14.1962 8.86337 14.2686 8.7495C14.3982 8.54237 14.5275 8.3404 14.6828 8.15414Z" fill="#1D1D1B"/>
<path d="M14.5897 5.90242C14.7346 5.87653 14.7864 6.07322 14.6518 6.11985C14.2481 6.26476 13.8391 6.35802 13.425 6.45115C13.2801 6.48735 13.2232 6.28035 13.3629 6.23372C13.7718 6.10942 14.1704 5.9801 14.5897 5.90242Z" fill="#1D1D1B"/>
<path d="M12.9383 3.02957C13.3214 3.67658 13.6733 4.33403 14.0254 4.99663C12.9435 5.19332 11.8875 5.53492 10.9143 6.00598C11.0179 5.35382 11.0851 4.69637 11.1525 4.03892C11.1991 3.62995 11.2353 3.22111 11.2768 2.81213C11.2975 2.59985 11.2717 1.75615 11.3907 1.58535C11.7996 0.974528 12.0946 1.65787 12.3069 1.99432C12.5243 2.33592 12.7365 2.68268 12.9383 3.02957ZM11.7633 3.85253C11.7841 3.72308 11.5977 3.66615 11.5615 3.7956C11.4632 4.12175 11.4166 4.45305 11.4632 4.79465C11.4839 4.92411 11.6702 4.93441 11.6755 4.79465C11.6858 4.47894 11.7012 4.1631 11.7633 3.85253ZM11.2768 4.53072C11.2871 4.60324 11.3958 4.61354 11.3958 4.53072C11.3855 4.27194 11.3544 4.01303 11.3286 3.75425C11.3234 3.68173 11.2096 3.68173 11.2147 3.75425C11.2353 4.01303 11.2406 4.27709 11.2768 4.53072Z" fill="#F0954F"/>
<path d="M11.5615 3.79559C11.5977 3.66613 11.7841 3.72307 11.7634 3.85252C11.7013 4.16309 11.6857 4.4788 11.6754 4.79465C11.6702 4.9344 11.4838 4.9241 11.4631 4.79465C11.4166 4.45304 11.4632 4.12174 11.5615 3.79559Z" fill="#1D1D1B"/>
<path d="M11.3958 4.53068C11.3958 4.61351 11.2871 4.6032 11.2768 4.53068C11.2406 4.27706 11.2353 4.013 11.2147 3.75422C11.2096 3.6817 11.3234 3.6817 11.3286 3.75422C11.3545 4.013 11.3855 4.27178 11.3958 4.53068Z" fill="#1D1D1B"/>
<path d="M10.0242 10.8717C10.0914 10.7889 10.2312 10.8976 10.1691 10.9804C9.97239 11.2651 9.72907 11.4981 9.4341 11.674C9.35642 11.7207 9.25814 11.6015 9.33568 11.5446C9.58416 11.3376 9.8119 11.115 10.0242 10.8717Z" fill="#1D1D1B"/>
<path d="M9.97752 11.7671C9.99311 11.7258 10.0552 11.7412 10.0448 11.7879C9.98783 12.0725 9.7342 12.2433 9.44438 12.202C9.4029 12.1968 9.4029 12.1347 9.44438 12.1347C9.698 12.1554 9.90513 12.0053 9.97752 11.7671Z" fill="#1D1D1B"/>
<path d="M10.3555 6.28547C9.63078 6.68916 8.97333 7.17066 8.39884 7.73484C8.25908 7.28452 8.12447 6.8342 8.0106 6.3786C7.95367 6.16117 7.5447 4.90334 7.69489 4.7118C7.90189 4.44786 9.56341 5.71085 10.3555 6.28547Z" fill="#F0954F"/>
<path d="M7.95364 8.20063C7.36356 8.87869 6.89765 9.66031 6.59224 10.5352C6.02277 9.88817 3.79706 7.4346 3.97301 7.22747C4.2059 6.95311 5.64497 7.49141 5.91934 7.56393C6.6077 7.74516 7.28073 7.96774 7.95364 8.20063ZM6.49383 9.5154C6.55592 9.55159 6.62328 9.46877 6.5715 9.41699C6.37996 9.2306 6.15222 9.08053 5.93479 8.92519C5.87271 8.87856 5.78988 8.98212 5.85197 9.02875C6.06425 9.19453 6.26609 9.38092 6.49383 9.5154ZM5.82092 9.25662C5.89344 9.32386 5.98657 9.22557 5.92964 9.15305C5.67601 8.82691 5.38606 8.52678 5.08078 8.24726C5.03943 8.20579 4.95133 8.26272 4.9928 8.31978C5.24643 8.65095 5.52067 8.97195 5.82092 9.25662Z" fill="#F0954F"/>
<path d="M6.57153 9.41714C6.62331 9.46892 6.55608 9.55175 6.49386 9.51556C6.26612 9.38095 6.06428 9.19456 5.852 9.02904C5.78991 8.98241 5.87274 8.87897 5.93482 8.92547C6.15226 9.08069 6.37999 9.23075 6.57153 9.41714Z" fill="#1D1D1B"/>
<path d="M6.49901 14.1224C6.57153 14.1691 6.50932 14.2778 6.43177 14.2363C6.18845 14.0965 5.95041 13.9465 5.71224 13.7963C5.63972 13.7445 5.70709 13.6255 5.78476 13.6721C6.02808 13.817 6.26612 13.9619 6.49901 14.1224Z" fill="#1D1D1B"/>
<path d="M6.3904 11.1512C6.26094 11.6895 6.18855 12.259 6.1834 12.8645C5.48976 12.5953 4.85305 12.1139 4.34579 11.4151C4.7339 11.4359 5.82608 11.2496 6.3904 11.1512Z" fill="#F0954F"/>
<path d="M5.92965 9.15307C5.98659 9.22559 5.89346 9.32387 5.82094 9.25663C5.52068 8.97196 5.24632 8.65097 4.99269 8.31967C4.95134 8.26273 5.03932 8.2058 5.08067 8.24715C5.3862 8.52679 5.67603 8.82705 5.92965 9.15307Z" fill="#1D1D1B"/>
<path d="M5.54146 14.0396C5.62944 14.0966 5.55177 14.2312 5.45864 14.1794C5.13249 14.0137 4.84782 13.7911 4.6045 13.5168C4.53726 13.4443 4.64069 13.3408 4.71321 13.4081C4.97727 13.6358 5.24649 13.8481 5.54146 14.0396Z" fill="#1D1D1B"/>
</svg>
