<?xml version="1.0" encoding="iso-8859-1"?>
<!-- Generator: Adobe Illustrator 19.0.0, SVG Export Plug-In . SVG Version: 6.00 Build 0)  -->
<svg version="1.1" id="Layer_1" xmlns="http://www.w3.org/2000/svg" xmlns:xlink="http://www.w3.org/1999/xlink" x="0px" y="0px"
	 viewBox="0 0 248.428 248.428" style="enable-background:new 0 0 248.428 248.428;" xml:space="preserve">
<g>
	<path style="fill:#1D1D1B;" d="M83.045,108.596c0.161-10.609,1.246-21.218,2.13-31.787c0.241-2.893-0.402-9.604,3.054-11.252
		c4.42-2.09,7.475,5.787,9.122,8.359c5.224,8.198,10.087,16.637,14.507,25.317c2.773-5.988,7.073-11.453,10.89-16.757
		c1.728-2.411,3.978-6.791,7.635-5.988c3.094,0.643,4.219,4.42,5.104,6.992c1.848,5.184,4.019,10.689,4.782,16.195
		c5.425-8.158,11.091-16.155,16.838-24.071c2.291-3.175,4.501-8.72,8.961-9.042c0.522-0.04,1.045,0.321,1.326,0.763
		c3.295,4.983,2.09,12.9,1.889,18.526c-0.281,8.921-0.924,17.842-1.889,26.683c4.179-3.215,8.6-6.068,13.462-8.238
		c2.291-1.005,6.791-3.496,9.283-1.527c2.974,2.291,0.683,7.876-0.241,10.489c-1.929,5.465-4.943,10.448-6.43,16.034
		c6.59-3.094,13.462-5.586,20.535-7.354c4.018-1.005,10.81-3.697,14.989-1.929c8.6,3.617-6.872,20.374-9.725,24.071
		c-0.321,0.402-0.683,0.563-1.085,0.563c3.014,5.465,7.434,10.006,13.502,12.216c9.725,3.536,15.793-2.893,23.227-7.917
		c0.844-0.563,1.648-0.281,2.13,0.322c0.884,0.241,1.728,1.286,1.246,2.411c-4.26,9.845-11.855,18.325-23.187,19.249
		c-8.318,0.643-15.672-3.376-19.088-10.609c-5.063,12.538-23.91,14.507-33.354,5.666c-10.408,19.169-42.758,13.181-51.88-4.541
		c-2.371,4.702-8.72,7.635-13.663,7.917c-5.787,0.281-10.93-2.25-14.145-6.711c-7.475,14.869-19.651,21.379-36.649,20.495
		c-13.261-0.643-25.196-6.832-29.938-19.45c-7.515,5.867-20.696,3.657-26.201-3.898c-0.683-0.924,0.723-1.688,1.447-1.125
		c0,0.04,0.04,0.04,0.04,0.04s0,0,0.04,0c6.711,1.768,12.9-1.366,17.079-6.59c2.893-3.657,4.34-8.158,6.992-11.855
		c0.04-0.683,0.563-1.085,1.125-1.165c0.121-0.04,0.201-0.04,0.322-0.04c0.522,0.04,0.964,0.322,1.206,0.924
		c1.165,3.215,2.652,5.988,4.3,8.519c2.049-1.366,5.706-1.527,8.037-2.009c3.054-0.603,6.148-1.246,9.202-1.728
		c-5.907-5.264-11.172-11.332-15.994-17.601c-1.768-2.331-8.238-8.238-6.55-11.814c1.808-3.778,9.484-0.723,12.056-0.161
		c8.077,1.768,16.034,4.099,23.79,6.952c-2.331-5.505-4.179-11.172-5.425-17.039c-0.603-2.733-2.612-8.158,0.04-10.488
		c3.094-2.692,7.474,1.366,9.805,3.014C72.798,101.201,78.303,104.577,83.045,108.596z M240.452,157.863
		c-5.988,4.219-13.181,6.108-20.535,3.175c-6.832-2.733-12.417-8.278-14.909-15.07c-2.773,7.515-8.68,15.07-16.516,16.034
		c-7.474,0.884-14.427-3.536-17.521-10.046c-7.073,19.048-39.02,18.204-46.977-1.005c-1.406,2.371-3.376,4.38-5.666,5.907
		c-3.938,2.652-8.841,3.858-13.583,2.733c-4.863-1.165-10.247-5.505-12.136-10.609c-13.06,26.924-54.331,23.75-65.382-4.179
		c-3.175,8.68-11.493,17.159-20.575,16.999c6.028,2.813,12.056,2.21,18.887-1.005c0.402-0.201,0.764-0.201,1.125-0.08
		c0.442-0.08,0.924,0,1.165,0.482c5.867,12.337,17.32,17.682,30.501,18.003c15.672,0.442,24.996-6.47,32.39-19.651
		c0.201-0.321,0.402-0.522,0.643-0.643c0.201-0.322,0.603-0.482,0.924-0.201c0.804,0.08,1.487,0.763,1.567,1.607
		c3.295,3.335,7.716,5.747,12.498,5.586c6.189-0.241,8.921-4.219,13.06-7.876c0.04-0.08,0.121-0.12,0.161-0.161
		c0.804-0.723,1.848-0.201,2.009,0.683c10.247,16.195,36.89,22.102,48.745,4.943c0.08-0.121,0.161-0.161,0.241-0.241
		c0.121-0.402,0.522-0.643,0.884-0.522c0.804-0.121,1.607,0.402,1.848,1.165c5.264,3.376,11.091,5.425,17.481,3.818
		c6.791-1.688,9.886-6.43,13.743-11.694c0.804-1.085,2.25-0.603,2.411,0.603C215.537,172.209,231.129,168.512,240.452,157.863z
		 M216.18,128.206c4.099-6.992-2.371-5.104-7.314-4.019c-9.082,2.009-17.842,4.943-26.523,8.318
		c4.38,7.314,7.595,15.512,9.162,24.353c6.108-3.175,9.002-11.212,11.373-17.079c0.844-2.21,3.938-1.366,3.536,0.964
		c0,0.08,0,0.121-0.04,0.161c0.161,0.322,0.322,0.643,0.442,0.965c0.04-0.04,0.04-0.121,0.08-0.161
		C210.273,137.409,213.407,132.948,216.18,128.206z M188.171,108.354c0.161-2.934-0.804-3.818-2.813-2.572
		c-2.492,0-5.867,2.25-7.997,3.335c-3.416,1.768-6.711,3.818-10.087,5.706c5.305,4.461,9.926,9.725,13.744,15.632
		c0.12-0.08,0.241-0.121,0.362-0.201c-1.487-2.692-0.482-4.3,0.764-7.113c1.849-4.059,4.019-8.037,5.345-12.337
		C187.729,110.002,187.97,109.198,188.171,108.354z M172.056,147.616c2.692,6.229,8.76,11.573,15.833,10.408
		c-16.396-74.585-126.826-71.41-137.636,4.019c15.351,4.621,33.515-3.335,41.833-21.66c0.844-1.848,3.657-0.482,3.215,1.366
		c-0.161,0.643-0.442,1.165-0.603,1.768c0.924,6.631,5.988,12.498,13.141,12.699c7.515,0.161,12.377-5.626,15.23-11.855
		c0.884-1.848,3.536-0.442,3.134,1.326c-0.12,0.603-0.362,1.125-0.522,1.648c8.278,20.776,35.363,17.762,43.36-2.049
		c0.643-1.648,3.456-1.607,3.336,0.442C172.297,146.41,172.137,146.973,172.056,147.616z M165.747,92.803
		c0.241-3.858,2.411-13.824,0.522-17.2c-3.295-6.028-5.626,0.281-7.635,2.974c-1.728,2.371-3.536,4.702-5.264,7.113
		c-3.858,5.184-7.635,10.448-11.573,15.592c8.238,2.331,15.833,6.189,22.544,11.212C164.783,105.943,165.345,99.353,165.747,92.803z
		 M137.617,100.197c-1.085-2.692-1.808-5.506-2.692-8.238c-0.603-1.929-1.206-3.818-1.849-5.747
		c-0.522-1.567-1.085-3.094-1.688-4.621c-1.567,0.281-3.134,0.563-4.702,0.844c-1.085,0.603-2.934,3.898-3.657,4.903
		c-1.246,1.648-2.411,3.295-3.617,4.943c-1.728,2.411-3.416,4.822-5.304,7.073c0.884-0.121,1.728-0.281,2.612-0.362
		C123.914,98.268,130.946,98.75,137.617,100.197z M108.884,100.116c-2.733-5.144-5.465-10.247-8.439-15.271
		c-1.567-2.692-3.215-5.385-4.903-8.037c-1.648-2.612-3.938-7.917-7.113-3.175c-0.924,1.326-0.723,7.876-0.884,9.524
		c-0.322,3.175-0.603,6.349-0.965,9.524c-0.522,5.104-1.045,10.207-1.849,15.271C92.288,104.296,100.486,101.643,108.884,100.116z
		 M65.203,121.375c4.461-4.38,9.564-8.118,15.19-11.252c-6.148-4.461-19.048-14.266-20.656-12.216
		c-1.165,1.487,2.009,11.252,2.451,12.94C63.073,114.382,64.118,117.878,65.203,121.375z M51.178,143.115
		c2.371-6.791,5.988-12.859,10.569-18.124c-5.224-1.808-10.448-3.536-15.793-4.943c-2.13-0.563-13.301-4.742-15.11-2.612
		C29.478,119.044,46.757,138.092,51.178,143.115z M48.003,161.199c0.04-4.702,0.603-9.122,1.607-13.301
		c-4.38,0.764-12.859,2.21-15.873,2.049C37.675,155.372,42.618,159.109,48.003,161.199z"/>
	<path style="fill:#99D9F1;" d="M219.917,161.038c7.354,2.934,14.547,1.045,20.535-3.175c-9.323,10.649-24.915,14.346-33.515-1.246
		c-0.161-1.206-1.607-1.688-2.411-0.603c-3.858,5.264-6.952,10.006-13.743,11.694c-6.389,1.607-12.216-0.442-17.481-3.818
		c-0.241-0.764-1.045-1.286-1.848-1.165c-0.362-0.121-0.764,0.12-0.884,0.522c-0.08,0.08-0.161,0.12-0.241,0.241
		c-11.855,17.159-38.498,11.252-48.745-4.943c-0.161-0.884-1.206-1.406-2.009-0.683c-0.04,0.04-0.121,0.08-0.161,0.161l-1.085-1.165
		c2.291-1.527,4.26-3.536,5.666-5.907c7.957,19.209,39.904,20.053,46.977,1.005c3.094,6.51,10.046,10.93,17.521,10.046
		c7.836-0.964,13.744-8.519,16.516-16.034C207.5,152.76,213.086,158.305,219.917,161.038z M153.491,171.888
		c1.005-0.281,0.844-1.889-0.241-1.848c-2.853,0.12-5.144-0.08-7.836-1.005c-0.924-0.281-1.406,1.005-0.643,1.527
		C147.222,172.129,150.678,172.732,153.491,171.888z"/>
	<path style="fill:#F0954F;" d="M208.866,124.188c4.943-1.085,11.413-2.974,7.314,4.019c-2.773,4.742-5.907,9.202-9.283,13.502
		c-0.04,0.04-0.04,0.12-0.08,0.161c-0.121-0.322-0.281-0.643-0.442-0.965c0.04-0.04,0.04-0.08,0.04-0.161
		c0.402-2.331-2.692-3.175-3.536-0.964c-2.371,5.867-5.264,13.904-11.373,17.079c-1.567-8.841-4.782-17.039-9.162-24.353
		C191.024,129.13,199.784,126.197,208.866,124.188z M197.373,143.276c0.603-1.286-1.085-2.291-1.929-1.125
		c-1.206,1.607-2.17,3.255-3.134,4.983c-0.764,1.366,1.286,2.572,2.13,1.246C195.485,146.692,196.529,145.044,197.373,143.276z"/>
	<path style="fill:#1D1D1B;" d="M195.444,142.151c0.844-1.165,2.532-0.161,1.929,1.125c-0.844,1.768-1.889,3.416-2.933,5.104
		c-0.844,1.326-2.893,0.121-2.13-1.246C193.274,145.406,194.239,143.758,195.444,142.151z"/>
	<path style="fill:#F0954F;" d="M185.358,105.783c2.009-1.246,2.974-0.362,2.813,2.572c-0.201,0.844-0.442,1.648-0.683,2.451
		c-1.326,4.3-3.496,8.278-5.345,12.337c-1.246,2.813-2.25,4.42-0.764,7.113c-0.12,0.08-0.241,0.121-0.362,0.201
		c-3.818-5.907-8.439-11.172-13.744-15.632c3.376-1.889,6.671-3.938,10.087-5.706C179.491,108.033,182.866,105.783,185.358,105.783z
		 M182.143,114.061c0.603-0.844-0.683-1.768-1.406-1.085c-1.366,1.286-1.889,2.813-1.889,4.661c-0.04,1.246,1.808,1.206,1.889,0
		C180.857,116.271,181.379,115.146,182.143,114.061z"/>
	<path style="fill:#F7CAA7;" d="M187.889,158.024c-7.073,1.165-13.141-4.179-15.833-10.408c0.08-0.643,0.241-1.206,0.322-1.889
		c0.12-2.049-2.693-2.09-3.336-0.442c-7.997,19.812-35.082,22.825-43.36,2.049c0.161-0.522,0.402-1.045,0.522-1.648
		c0.402-1.768-2.25-3.175-3.134-1.326c-2.853,6.229-7.716,12.016-15.23,11.855c-7.153-0.201-12.216-6.068-13.141-12.699
		c0.161-0.603,0.442-1.125,0.603-1.768c0.442-1.848-2.371-3.215-3.215-1.366c-8.319,18.325-26.482,26.281-41.833,21.66
		C61.063,86.614,171.494,83.439,187.889,158.024z M184.112,154.287c0.201-3.215-0.442-6.148-1.889-9.042
		c-0.442-0.884-2.009-0.241-1.648,0.683c1.125,2.652,1.728,5.465,1.929,8.359C182.545,155.331,184.032,155.331,184.112,154.287z
		 M165.064,129.372c0.844,0.723,2.21-0.201,1.607-1.246c-1.929-3.094-5.385-4.702-8.921-5.104c-1.125-0.12-1.326,1.688-0.281,1.969
		C160.523,125.715,162.773,127.322,165.064,129.372z M163.055,134.113c0.362,0.804,1.688,0.241,1.406-0.603
		c-0.884-2.893-3.456-5.546-6.671-5.666c-0.482-0.04-0.723,0.723-0.241,0.965C160.001,130.095,161.889,131.461,163.055,134.113z
		 M144.81,158.828c0.844-0.241,0.683-1.567-0.201-1.527c-4.019,0.281-7.876-1.567-9.926-5.144c-0.241-0.442-0.965-0.161-0.844,0.362
		C135.246,157.18,140.109,160.073,144.81,158.828z M139.064,137.489c0.281,1.406,2.411,0.804,2.13-0.563
		c-0.482-2.451-1.567-4.541-3.617-6.028c-0.683-0.482-1.688,0.522-1.165,1.206C137.617,133.792,138.662,135.44,139.064,137.489z
		 M118.328,111.931c1.045,0.322,1.407-1.246,0.442-1.607c-3.335-1.286-6.671-0.603-9.403,1.607
		c-0.764,0.603,0.241,1.889,1.005,1.326C112.702,111.569,115.555,111.087,118.328,111.931z M114.952,125.393
		c0.281-0.603-0.482-1.326-0.964-0.764c-1.206,1.447-2.21,3.014-3.215,4.621c-0.563,0.884,0.844,1.728,1.447,0.844
		C113.224,128.528,114.149,127.041,114.952,125.393z M113.747,108.837c1.045-0.362,0.643-1.889-0.482-1.688
		c-3.255,0.603-6.349,1.607-9.524,2.572c-1.085,0.362-0.643,1.969,0.482,1.688C107.438,110.685,110.612,109.962,113.747,108.837z
		 M78.946,146.571c0.482-0.643-0.603-1.487-1.125-0.844c-1.648,1.889-3.416,3.617-5.345,5.224c-0.603,0.442,0.161,1.366,0.764,1.005
		C75.53,150.59,77.419,148.781,78.946,146.571z M77.982,152.84c0.08-0.362-0.402-0.482-0.522-0.161
		c-0.563,1.849-2.17,3.014-4.139,2.853c-0.322,0-0.322,0.482,0,0.522C75.571,156.376,77.54,155.05,77.982,152.84z"/>
	<path style="fill:#1D1D1B;" d="M182.223,145.245c1.447,2.893,2.09,5.827,1.889,9.042c-0.08,1.045-1.567,1.045-1.607,0
		c-0.201-2.893-0.804-5.706-1.929-8.359C180.214,145.004,181.781,144.361,182.223,145.245z"/>
	<path style="fill:#1D1D1B;" d="M180.736,112.976c0.723-0.683,2.009,0.241,1.406,1.085c-0.764,1.085-1.286,2.21-1.406,3.576
		c-0.08,1.206-1.929,1.246-1.889,0C178.848,115.789,179.37,114.262,180.736,112.976z"/>
	<path style="fill:#1D1D1B;" d="M166.671,128.126c0.603,1.045-0.764,1.969-1.607,1.246c-2.291-2.049-4.541-3.657-7.595-4.38
		c-1.045-0.281-0.844-2.09,0.281-1.969C161.287,123.424,164.743,125.031,166.671,128.126z"/>
	<path style="fill:#F0954F;" d="M166.27,75.603c1.889,3.376-0.281,13.342-0.522,17.2c-0.402,6.55-0.964,13.141-1.406,19.691
		c-6.711-5.023-14.306-8.881-22.544-11.212c3.938-5.144,7.716-10.408,11.573-15.592c1.728-2.411,3.536-4.742,5.264-7.113
		C160.644,75.884,162.974,69.575,166.27,75.603z M159.398,90.874c0.522-0.723-0.643-1.648-1.246-0.965
		c-1.206,1.407-2.049,3.054-3.014,4.581c-0.241,0.402,0.322,0.844,0.603,0.482C156.987,93.646,158.393,92.401,159.398,90.874z
		 M153.249,93.566c0.563-0.563-0.161-1.527-0.884-1.125c-1.849,1.045-2.934,2.853-3.536,4.862c-0.322,0.924,1.165,1.326,1.487,0.402
		C150.919,95.977,152.004,94.852,153.249,93.566z"/>
	<path style="fill:#1D1D1B;" d="M164.461,133.511c0.281,0.844-1.045,1.407-1.406,0.603c-1.165-2.652-3.054-4.019-5.506-5.304
		c-0.482-0.241-0.241-1.005,0.241-0.965C161.005,127.965,163.577,130.617,164.461,133.511z"/>
	<path style="fill:#1D1D1B;" d="M158.152,89.909c0.603-0.683,1.768,0.241,1.246,0.965c-1.005,1.527-2.411,2.773-3.657,4.099
		c-0.281,0.362-0.844-0.08-0.603-0.482C156.103,92.963,156.947,91.316,158.152,89.909z"/>
	<path style="fill:#1D1D1B;" d="M153.249,170.039c1.085-0.04,1.246,1.567,0.241,1.848c-2.813,0.844-6.269,0.241-8.72-1.326
		c-0.763-0.522-0.281-1.808,0.643-1.527C148.106,169.959,150.396,170.16,153.249,170.039z"/>
	<path style="fill:#F0954F;" d="M152.365,92.441c0.723-0.402,1.447,0.563,0.884,1.125c-1.246,1.286-2.331,2.411-2.934,4.139
		c-0.322,0.924-1.808,0.522-1.487-0.402C149.432,95.294,150.517,93.486,152.365,92.441z"/>
	<path style="fill:#1D1D1B;" d="M144.61,157.301c0.884-0.04,1.045,1.286,0.201,1.527c-4.702,1.246-9.564-1.648-10.971-6.309
		c-0.121-0.522,0.603-0.804,0.844-0.362C136.733,155.733,140.591,157.582,144.61,157.301z"/>
	<path style="fill:#1D1D1B;" d="M141.194,136.926c0.281,1.366-1.849,1.969-2.13,0.563c-0.402-2.049-1.447-3.697-2.652-5.385
		c-0.522-0.683,0.482-1.688,1.165-1.206C139.626,132.385,140.711,134.475,141.194,136.926z"/>
	<path style="fill:#F0954F;" d="M134.925,91.959c0.884,2.733,1.607,5.546,2.692,8.238c-6.671-1.447-13.703-1.929-20.897-1.206
		c-0.884,0.08-1.728,0.241-2.612,0.362c1.889-2.25,3.577-4.662,5.304-7.073c1.206-1.648,2.371-3.295,3.617-4.943
		c0.723-1.005,2.572-4.3,3.657-4.903c1.567-0.281,3.134-0.563,4.702-0.844c0.603,1.527,1.165,3.054,1.688,4.621
		C133.719,88.141,134.322,90.03,134.925,91.959z M128.415,97.223c0.121,0.764,1.487,0.603,1.366-0.201
		c-0.362-2.853-1.447-5.224-3.295-7.394c-0.281-0.321-0.764,0.08-0.563,0.442C127.249,92.28,128.013,94.691,128.415,97.223z"/>
	<path style="fill:#1D1D1B;" d="M129.781,97.022c0.121,0.804-1.246,0.964-1.366,0.201c-0.402-2.532-1.165-4.943-2.492-7.153
		c-0.201-0.362,0.281-0.764,0.563-0.442C128.334,91.798,129.419,94.169,129.781,97.022z"/>
	<path style="fill:#99D9F1;" d="M118.328,156.859l1.085,1.165c-4.139,3.657-6.872,7.635-13.06,7.876
		c-4.782,0.161-9.203-2.25-12.498-5.586c-0.08-0.844-0.764-1.527-1.567-1.607c-0.322-0.281-0.723-0.121-0.924,0.201
		c-0.241,0.121-0.442,0.322-0.643,0.643c-7.394,13.181-16.717,20.093-32.39,19.651c-13.181-0.322-24.634-5.666-30.501-18.003
		c-0.241-0.482-0.723-0.563-1.165-0.482c-0.362-0.121-0.723-0.121-1.125,0.08c-6.832,3.215-12.859,3.818-18.887,1.005
		c9.082,0.161,17.4-8.318,20.575-16.999c11.051,27.929,52.322,31.104,65.382,4.179c1.889,5.104,7.274,9.444,12.136,10.609
		C109.487,160.716,114.39,159.511,118.328,156.859z M49.932,171.848c0.603,0.322,1.085-0.522,0.522-0.884
		c-1.808-1.246-3.657-2.371-5.546-3.496c-0.603-0.362-1.125,0.563-0.563,0.964C46.195,169.597,48.043,170.763,49.932,171.848z
		 M42.377,171.406c0.723,0.402,1.326-0.643,0.643-1.085c-2.291-1.487-4.38-3.135-6.43-4.903c-0.563-0.522-1.366,0.281-0.844,0.844
		C37.635,168.392,39.845,170.12,42.377,171.406z"/>
	<path style="fill:#1D1D1B;" d="M118.77,110.323c0.964,0.362,0.603,1.929-0.442,1.607c-2.773-0.844-5.626-0.362-7.957,1.326
		c-0.764,0.563-1.768-0.723-1.005-1.326C112.099,109.721,115.435,109.038,118.77,110.323z"/>
	<path style="fill:#1D1D1B;" d="M113.988,124.63c0.482-0.563,1.246,0.161,0.964,0.764c-0.804,1.648-1.728,3.134-2.733,4.702
		c-0.603,0.884-2.009,0.04-1.447-0.844C111.778,127.644,112.782,126.076,113.988,124.63z"/>
	<path style="fill:#1D1D1B;" d="M113.265,107.149c1.125-0.201,1.527,1.326,0.482,1.688c-3.134,1.125-6.309,1.849-9.524,2.572
		c-1.125,0.281-1.567-1.326-0.482-1.688C106.915,108.756,110.01,107.752,113.265,107.149z"/>
	<path style="fill:#F0954F;" d="M100.445,84.846c2.974,5.023,5.706,10.127,8.439,15.271c-8.399,1.527-16.597,4.179-24.152,7.836
		c0.804-5.063,1.326-10.167,1.849-15.271c0.362-3.175,0.643-6.349,0.965-9.524c0.161-1.648-0.04-8.198,0.884-9.524
		c3.175-4.742,5.465,0.563,7.113,3.175C97.231,79.461,98.878,82.153,100.445,84.846z M91.323,91.235
		c0.161-1.005-1.286-1.447-1.567-0.442c-0.763,2.532-1.125,5.104-0.763,7.756c0.161,1.005,1.607,1.085,1.648,0
		C90.721,96.098,90.841,93.646,91.323,91.235z M87.546,96.5c0.08,0.563,0.924,0.643,0.924,0c-0.08-2.009-0.322-4.019-0.522-6.028
		c-0.04-0.563-0.924-0.563-0.884,0C87.224,92.481,87.265,94.531,87.546,96.5z"/>
	<path style="fill:#1D1D1B;" d="M89.756,90.793c0.281-1.005,1.728-0.563,1.567,0.442c-0.482,2.411-0.603,4.862-0.683,7.314
		c-0.04,1.085-1.487,1.005-1.648,0C88.631,95.897,88.993,93.325,89.756,90.793z"/>
	<path style="fill:#1D1D1B;" d="M88.47,96.5c0,0.643-0.844,0.563-0.924,0c-0.281-1.969-0.322-4.019-0.482-6.028
		c-0.04-0.563,0.844-0.563,0.884,0C88.149,92.481,88.39,94.49,88.47,96.5z"/>
	<path style="fill:#1D1D1B;" d="M77.821,145.727c0.522-0.643,1.607,0.201,1.125,0.844c-1.527,2.21-3.416,4.019-5.706,5.385
		c-0.603,0.362-1.366-0.563-0.764-1.005C74.405,149.344,76.173,147.616,77.821,145.727z"/>
	<path style="fill:#1D1D1B;" d="M77.459,152.679c0.121-0.321,0.603-0.201,0.522,0.161c-0.442,2.21-2.411,3.536-4.661,3.215
		c-0.322-0.04-0.322-0.522,0-0.522C75.289,155.693,76.897,154.528,77.459,152.679z"/>
	<path style="fill:#F0954F;" d="M80.393,110.123c-5.626,3.134-10.73,6.872-15.19,11.252c-1.085-3.496-2.13-6.992-3.014-10.529
		c-0.442-1.688-3.617-11.453-2.451-12.94C61.345,95.857,74.244,105.662,80.393,110.123z"/>
	<path style="fill:#F0954F;" d="M61.747,124.991c-4.581,5.264-8.198,11.332-10.569,18.124c-4.421-5.023-21.7-24.071-20.334-25.679
		c1.808-2.13,12.98,2.049,15.11,2.612C51.298,121.455,56.523,123.183,61.747,124.991z M50.414,135.198
		c0.482,0.281,1.005-0.362,0.603-0.764c-1.487-1.447-3.255-2.612-4.943-3.818c-0.482-0.362-1.125,0.442-0.643,0.804
		C47.079,132.707,48.646,134.154,50.414,135.198z M45.19,133.189c0.563,0.522,1.286-0.241,0.844-0.804
		c-1.969-2.532-4.22-4.862-6.59-7.032c-0.321-0.322-1.005,0.12-0.683,0.563C40.73,128.487,42.859,130.979,45.19,133.189z"/>
	<path style="fill:#1D1D1B;" d="M51.017,134.435c0.402,0.402-0.12,1.045-0.603,0.764c-1.768-1.045-3.335-2.492-4.983-3.777
		c-0.482-0.362,0.161-1.165,0.643-0.804C47.762,131.823,49.53,132.988,51.017,134.435z"/>
	<path style="fill:#1D1D1B;" d="M50.454,170.964c0.563,0.362,0.08,1.206-0.522,0.884c-1.889-1.085-3.737-2.25-5.586-3.416
		c-0.563-0.402-0.04-1.326,0.563-0.964C46.798,168.593,48.646,169.718,50.454,170.964z"/>
	<path style="fill:#F0954F;" d="M49.611,147.897c-1.005,4.179-1.567,8.6-1.607,13.301c-5.385-2.09-10.328-5.827-14.266-11.252
		C36.751,150.107,45.23,148.661,49.611,147.897z"/>
	<path style="fill:#1D1D1B;" d="M46.034,132.385c0.442,0.563-0.281,1.326-0.844,0.804c-2.331-2.21-4.461-4.702-6.43-7.274
		c-0.321-0.442,0.362-0.884,0.683-0.563C41.815,127.523,44.065,129.854,46.034,132.385z"/>
	<path style="fill:#1D1D1B;" d="M43.02,170.321c0.683,0.442,0.08,1.487-0.643,1.085c-2.532-1.286-4.742-3.014-6.631-5.144
		c-0.522-0.563,0.281-1.366,0.844-0.844C38.64,167.186,40.73,168.834,43.02,170.321z"/>
</g>
<g>
</g>
<g>
</g>
<g>
</g>
<g>
</g>
<g>
</g>
<g>
</g>
<g>
</g>
<g>
</g>
<g>
</g>
<g>
</g>
<g>
</g>
<g>
</g>
<g>
</g>
<g>
</g>
<g>
</g>
</svg>
