<svg>
  <clipPath id="paper-shape" clipPathUnits="objectBoundingBox">
    <path
      d="M0.311,0.005 C0.304,0.007,0.296,0.01,0.293,0.013 C0.29,0.016,0.284,0.02,0.28,0.02 C0.276,0.021,0.271,0.025,0.27,0.028 C0.266,0.036,0.246,0.048,0.244,0.043 C0.244,0.041,0.239,0.041,0.233,0.043 C0.219,0.049,0.158,0.05,0.148,0.046 C0.143,0.044,0.129,0.042,0.117,0.042 C0.105,0.042,0.093,0.04,0.089,0.038 C0.067,0.022,0.038,0.02,0.028,0.033 C0.024,0.038,0.018,0.043,0.014,0.045 C0.009,0.047,0.007,0.05,0.007,0.061 C0.006,0.069,0.007,0.078,0.009,0.086 C0.011,0.094,0.013,0.111,0.014,0.128 C0.014,0.145,0.016,0.157,0.017,0.159 C0.019,0.16,0.02,0.172,0.02,0.194 C0.02,0.284,0.021,0.308,0.023,0.318 C0.025,0.325,0.025,0.337,0.024,0.351 C0.023,0.365,0.024,0.374,0.025,0.379 C0.028,0.387,0.028,0.412,0.025,0.421 C0.024,0.424,0.024,0.428,0.024,0.43 C0.027,0.436,0.023,0.455,0.019,0.461 C0.012,0.471,0.007,0.502,0.008,0.525 C0.009,0.539,0.009,0.545,0.006,0.552 C0.004,0.558,0.004,0.561,0.005,0.561 C0.008,0.561,0.008,0.592,0.004,0.599 C0.003,0.603,0.002,0.608,0.003,0.609 C0.004,0.611,0.004,0.63,0.003,0.65 C0.003,0.671,0.002,0.697,0.001,0.709 C0.001,0.721,0.002,0.737,0.003,0.747 C0.005,0.756,0.006,0.766,0.006,0.768 C0.005,0.77,0.006,0.775,0.006,0.78 C0.008,0.792,0.009,0.8,0.01,0.823 C0.011,0.834,0.012,0.846,0.013,0.85 C0.014,0.854,0.014,0.861,0.012,0.872 C0.009,0.892,0.011,0.899,0.018,0.899 C0.021,0.899,0.023,0.902,0.024,0.904 C0.024,0.907,0.03,0.908,0.043,0.905 C0.061,0.901,0.079,0.904,0.091,0.913 C0.095,0.915,0.103,0.922,0.11,0.928 C0.117,0.933,0.126,0.939,0.13,0.94 C0.134,0.941,0.138,0.945,0.141,0.949 C0.146,0.958,0.152,0.962,0.167,0.966 C0.198,0.973,0.218,0.981,0.226,0.987 C0.23,0.991,0.239,0.995,0.246,0.995 C0.257,0.996,0.26,0.994,0.267,0.983 C0.271,0.977,0.279,0.969,0.285,0.967 C0.299,0.96,0.379,0.966,0.395,0.975 C0.4,0.978,0.415,0.981,0.429,0.98 C0.442,0.979,0.475,0.979,0.5,0.979 C0.544,0.98,0.548,0.981,0.556,0.99 C0.564,0.999,0.569,1,0.605,1 C0.636,1,0.648,1,0.659,0.997 C0.67,0.991,0.691,0.988,0.73,0.989 C0.737,0.99,0.75,0.985,0.759,0.98 C0.769,0.975,0.783,0.971,0.79,0.971 C0.807,0.971,0.831,0.959,0.84,0.946 C0.847,0.936,0.848,0.936,0.876,0.941 C0.914,0.949,0.94,0.941,0.962,0.916 C0.98,0.894,0.987,0.881,0.989,0.857 C0.992,0.83,0.992,0.768,0.989,0.74 C0.987,0.722,0.987,0.709,0.988,0.683 C0.989,0.652,0.989,0.622,0.987,0.596 C0.987,0.59,0.984,0.58,0.982,0.575 C0.98,0.569,0.977,0.559,0.977,0.552 C0.975,0.538,0.981,0.496,0.991,0.444 C0.996,0.415,0.997,0.407,0.997,0.388 C0.996,0.374,0.996,0.363,0.998,0.358 C1,0.349,1,0.257,1,0.257 C1,0.257,0.999,0.253,0.999,0.248 C0.999,0.239,0.997,0.212,0.996,0.196 C0.995,0.188,0.994,0.186,0.99,0.186 C0.982,0.186,0.977,0.18,0.977,0.17 C0.977,0.166,0.975,0.154,0.973,0.144 C0.97,0.131,0.969,0.125,0.97,0.118 C0.971,0.113,0.973,0.109,0.974,0.109 C0.978,0.109,0.971,0.1,0.961,0.092 C0.949,0.082,0.927,0.08,0.927,0.089 C0.927,0.093,0.926,0.094,0.925,0.092 C0.923,0.088,0.9,0.086,0.853,0.084 C0.828,0.083,0.813,0.077,0.805,0.067 C0.804,0.064,0.799,0.061,0.795,0.06 C0.79,0.059,0.782,0.053,0.776,0.048 C0.77,0.042,0.764,0.039,0.762,0.041 C0.76,0.042,0.759,0.041,0.759,0.039 C0.759,0.033,0.746,0.033,0.743,0.039 C0.742,0.042,0.741,0.041,0.74,0.039 C0.739,0.035,0.737,0.036,0.734,0.042 C0.727,0.055,0.694,0.062,0.684,0.053 C0.679,0.049,0.675,0.045,0.674,0.043 C0.673,0.041,0.666,0.038,0.658,0.036 C0.651,0.034,0.641,0.03,0.638,0.027 C0.634,0.023,0.628,0.021,0.624,0.023 C0.619,0.024,0.615,0.022,0.614,0.017 C0.611,0.011,0.609,0.011,0.599,0.014 C0.593,0.017,0.572,0.02,0.553,0.021 C0.534,0.023,0.514,0.025,0.508,0.026 C0.503,0.027,0.497,0.026,0.494,0.024 C0.486,0.016,0.47,0.014,0.417,0.012 C0.37,0.01,0.354,0.009,0.331,0.003 C0.328,0.002,0.319,0.003,0.311,0.005"
    ></path>
  </clipPath>
</svg>
