<svg width="16" height="16" viewBox="0 0 16 16" fill="none" xmlns="http://www.w3.org/2000/svg">
  <path fill-rule="evenodd" clip-rule="evenodd" d="M3.214 1.07352C4.813 0.753516 6.916 0.711516 8.354 2.14752C8.4004 2.19403 8.43718 2.24924 8.46223 2.30999C8.48728 2.37073 8.50012 2.43581 8.5 2.50152V13.5015C8.50018 13.6005 8.47095 13.6974 8.41602 13.7798C8.36109 13.8622 8.28294 13.9264 8.19146 13.9643C8.09999 14.0022 7.99932 14.0121 7.90221 13.9928C7.8051 13.9734 7.71593 13.9256 7.646 13.8555C6.803 13.0115 5.531 12.7965 4.176 12.9355C2.832 13.0755 1.516 13.5525 0.724 13.9485C0.647771 13.9867 0.56304 14.0048 0.47786 14.001C0.392679 13.9972 0.309879 13.9717 0.237329 13.9269C0.164778 13.8822 0.104888 13.8195 0.0633488 13.7451C0.0218099 13.6706 2.86113e-06 13.5868 0 13.5015L0 2.50152C3.11334e-06 2.40874 0.0258203 2.31779 0.0745635 2.23885C0.123307 2.1599 0.193053 2.09608 0.276 2.05452L0.5 2.50152L0.276 2.05452L0.278 2.05352L0.282 2.05152L0.295 2.04552C0.367491 2.00941 0.440846 1.97507 0.515 1.94252C1.38049 1.55492 2.28591 1.26351 3.215 1.07352H3.214ZM1 2.82152V12.7295C1.846 12.3865 2.944 12.0575 4.074 11.9415C5.217 11.8235 6.461 11.9185 7.5 12.5015V2.71952C6.437 1.79052 4.869 1.76352 3.41 2.05552C2.58185 2.22495 1.774 2.48172 1 2.82152Z" fill="#2D3748"/>
  <path fill-rule="evenodd" clip-rule="evenodd" d="M12.786 1.07352C11.188 0.753516 9.084 0.711516 7.646 2.14752C7.5996 2.19403 7.56282 2.24924 7.53777 2.30999C7.51272 2.37073 7.49988 2.43581 7.5 2.50152V13.5015C7.49982 13.6005 7.52905 13.6974 7.58398 13.7798C7.63891 13.8622 7.71706 13.9264 7.80854 13.9643C7.90001 14.0022 8.00068 14.0121 8.09779 13.9928C8.1949 13.9734 8.28407 13.9256 8.354 13.8555C9.197 13.0115 10.469 12.7965 11.824 12.9355C13.168 13.0755 14.484 13.5525 15.276 13.9485C15.3522 13.9867 15.437 14.0048 15.5221 14.001C15.6073 13.9972 15.6901 13.9717 15.7627 13.9269C15.8352 13.8822 15.8951 13.8195 15.9367 13.7451C15.9782 13.6706 16 13.5868 16 13.5015V2.50152C16 2.40874 15.9742 2.31779 15.9254 2.23885C15.8767 2.1599 15.8069 2.09608 15.724 2.05452L15.5 2.50152L15.724 2.05452L15.722 2.05352L15.718 2.05152L15.705 2.04552L15.658 2.02252C15.3957 1.90002 15.1292 1.78662 14.859 1.68252C14.1862 1.42217 13.4927 1.21846 12.786 1.07352ZM15 2.82152V12.7295C14.154 12.3865 13.056 12.0575 11.926 11.9415C10.783 11.8235 9.539 11.9185 8.5 12.5015V2.71952C9.563 1.79052 11.131 1.76352 12.59 2.05552C13.4182 2.22494 14.226 2.48171 15 2.82152Z" fill="#2D3748"/>
</svg>
