<svg width="16" height="16" viewBox="0 0 16 16" fill="none" xmlns="http://www.w3.org/2000/svg">
  <g clip-path="url(#clip0)">
    <path fill-rule="evenodd" clip-rule="evenodd" d="M1.018 7.5H3.508C3.545 6.43 3.697 5.413 3.945 4.492C3.4037 4.31889 2.87976 4.09559 2.38 3.825C1.58354 4.89435 1.11082 6.16987 1.018 7.5ZM3.05 3.049C3.412 3.233 3.813 3.398 4.248 3.539C4.39 3.155 4.552 2.795 4.729 2.461C4.90191 2.13406 5.10159 1.82199 5.326 1.528C4.47502 1.88091 3.70196 2.39811 3.051 3.05L3.05 3.049ZM8 0C5.87827 0 3.84344 0.842855 2.34315 2.34315C0.842855 3.84344 0 5.87827 0 8C0 10.1217 0.842855 12.1566 2.34315 13.6569C3.84344 15.1571 5.87827 16 8 16C10.1217 16 12.1566 15.1571 13.6569 13.6569C15.1571 12.1566 16 10.1217 16 8C16 5.87827 15.1571 3.84344 13.6569 2.34315C12.1566 0.842855 10.1217 0 8 0V0ZM7.5 1.077C6.83 1.281 6.165 1.897 5.613 2.932C5.47 3.2 5.337 3.492 5.218 3.804C5.923 3.961 6.691 4.061 7.5 4.091V1.077ZM7.5 5.091C6.59 5.061 5.717 4.946 4.909 4.759C4.67325 5.65477 4.53907 6.57422 4.509 7.5H7.5V5.091ZM8.5 7.5V5.091C9.41 5.061 10.283 4.946 11.091 4.759C11.314 5.586 11.455 6.513 11.491 7.5H8.5ZM7.5 8.5H4.51C4.545 9.487 4.686 10.414 4.909 11.241C5.76004 11.0478 6.62771 10.9369 7.5 10.91V8.5ZM8.5 10.909V8.5H11.49C11.4603 9.42574 11.3264 10.3452 11.091 11.241C10.24 11.0478 9.37229 10.9369 8.5 10.91V10.909ZM7.5 11.909C6.69 11.939 5.923 12.039 5.218 12.196C5.338 12.508 5.47 12.8 5.613 13.068C6.165 14.103 6.831 14.718 7.5 14.923V11.91V11.909ZM5.327 14.472C5.10257 14.178 4.90289 13.866 4.73 13.539C4.54587 13.1908 4.38518 12.8306 4.249 12.461C3.8376 12.5931 3.43706 12.7569 3.051 12.951C3.70243 13.6023 4.47583 14.1188 5.327 14.471V14.472ZM2.38 12.175C2.85 11.917 3.375 11.693 3.945 11.508C3.68538 10.5252 3.53876 9.51603 3.508 8.5H1.018C1.11082 9.83013 1.58354 11.1056 2.38 12.175ZM10.673 14.472C11.5239 14.1194 12.297 13.6025 12.948 12.951C12.5623 12.757 12.1621 12.5932 11.751 12.461C11.6148 12.8306 11.4541 13.1908 11.27 13.539C11.0971 13.866 10.8975 14.178 10.673 14.472ZM10.783 12.196C10.0323 12.0314 9.26812 11.9357 8.5 11.91V14.924C9.17 14.72 9.835 14.104 10.387 13.069C10.53 12.801 10.663 12.509 10.782 12.197L10.783 12.196ZM12.055 11.508C12.625 11.693 13.15 11.917 13.62 12.175C14.4165 11.1056 14.8892 9.83013 14.982 8.5H12.492C12.4613 9.51603 12.3147 10.5252 12.055 11.508ZM12.492 7.5H14.982C14.8892 6.16986 14.4165 4.89433 13.62 3.825C13.15 4.083 12.625 4.307 12.055 4.492C12.303 5.412 12.455 6.43 12.492 7.5ZM11.752 3.54C11.6155 3.17 11.4545 2.80953 11.27 2.461C11.0971 2.13404 10.8974 1.82197 10.673 1.528C11.53 1.883 12.303 2.403 12.948 3.049C12.5622 3.24297 12.162 3.40679 11.751 3.539L11.752 3.54ZM10.782 3.804C10.077 3.961 9.309 4.061 8.5 4.091V1.077C9.17 1.281 9.835 1.897 10.387 2.932C10.53 3.2 10.663 3.492 10.782 3.804Z" fill="#2D3748"/>
  </g>
  <defs>
    <clipPath id="clip0">
      <rect width="16" height="16" fill="white"/>
    </clipPath>
  </defs>
</svg>
