<?xml version="1.0" standalone="no"?>
<!DOCTYPE svg PUBLIC "-//W3C//DTD SVG 20010904//EN"
 "http://www.w3.org/TR/2001/REC-SVG-20010904/DTD/svg10.dtd">
<svg version="1.0" xmlns="http://www.w3.org/2000/svg"
 width="700.000000pt" height="700.000000pt" viewBox="0 0 700.000000 700.000000"
 preserveAspectRatio="xMidYMid meet">
<metadata>
Created by potrace 1.11, written by Peter Selinger 2001-2013
</metadata>
<g transform="translate(0.000000,700.000000) scale(0.100000,-0.100000)"
fill="#000000" stroke="none">
<path d="M2472 5144 c-41 -28 -63 -95 -67 -204 -3 -70 -16 -250 -20 -270 -2
-9 -6 -59 -10 -111 -3 -52 -8 -107 -10 -124 -5 -44 -23 -367 -24 -458 l-1 -38
-67 54 c-38 30 -126 94 -198 142 -71 49 -159 110 -195 135 -89 65 -128 83
-177 86 -35 2 -49 -3 -73 -26 -16 -15 -31 -39 -31 -52 -5 -79 -5 -95 2 -114 4
-11 9 -34 12 -50 18 -108 99 -384 156 -526 6 -16 9 -28 7 -28 -2 0 -34 11 -71
25 -174 66 -686 202 -793 212 -128 11 -180 -55 -125 -161 16 -31 85 -124 120
-161 10 -11 66 -78 123 -150 58 -71 166 -191 240 -267 147 -151 143 -138 55
-153 -60 -10 -91 -16 -140 -25 -27 -5 -66 -12 -85 -15 -44 -7 -140 -30 -162
-40 -20 -8 -56 44 -103 150 -46 105 -49 109 -76 102 -23 -6 -63 -69 -145 -227
-40 -77 -99 -157 -153 -208 -49 -46 -163 -107 -221 -119 -48 -9 -162 -6 -193
6 -19 7 -28 6 -37 -4 -9 -11 -7 -21 11 -46 53 -75 202 -155 327 -177 115 -20
281 8 353 59 15 10 31 19 36 19 5 0 20 -24 33 -52 83 -189 275 -355 491 -427
68 -22 80 -25 164 -41 112 -21 265 -27 395 -14 318 30 587 205 752 488 23 39
43 73 44 75 2 2 26 -20 54 -48 144 -144 361 -172 561 -71 57 29 141 103 164
144 10 17 12 16 25 -10 65 -129 247 -280 427 -354 140 -57 234 -75 393 -75
121 0 158 4 225 23 154 44 273 125 361 244 l42 57 43 -32 c186 -141 488 -153
698 -30 60 35 140 117 170 174 l25 46 36 -56 c95 -147 252 -231 439 -236 274
-7 525 163 676 458 25 49 45 95 45 103 0 21 -49 64 -72 64 -11 0 -57 -26 -101
-58 -213 -153 -296 -193 -409 -198 -177 -8 -376 109 -505 297 -41 61 -45 72
-31 80 9 5 56 60 106 121 182 230 252 357 254 457 1 72 -51 117 -142 124 -124
10 -594 -124 -858 -244 -35 -16 -65 -29 -67 -29 -11 0 44 146 101 268 19 40
34 75 34 78 0 3 6 20 14 37 100 221 95 361 -14 380 -78 14 -348 -112 -526
-245 -28 -21 -54 -38 -58 -38 -6 0 -1 110 9 170 2 14 7 70 11 125 3 55 8 120
9 145 12 171 20 389 19 530 -1 144 -3 172 -22 221 -12 30 -31 65 -42 77 -19
20 -22 20 -66 7 -58 -17 -90 -52 -199 -214 -46 -69 -91 -135 -100 -146 -39
-49 -215 -300 -318 -453 -38 -57 -71 -102 -73 -100 -1 2 -5 17 -8 33 -12 65
-47 186 -86 295 -23 63 -45 126 -50 140 -47 147 -130 209 -217 162 -31 -18
-77 -72 -180 -217 -143 -201 -162 -231 -214 -324 l-47 -83 -39 72 c-67 126
-277 493 -324 565 -25 39 -60 97 -78 130 -48 87 -99 153 -132 170 -36 19 -79
19 -107 -1z"/>
</g>
</svg>
